:SAMPLES-PER-SECOND 30
:FRAME-RANGE 1-744
:FULLY-SPECIFIED
:DEGREES
698
root  -59.1305 38.8604 -19.6876 -9.45407 83.4376 -10.8477
RightUpLeg  -13.9687 -11.0162 -2.77432
RightLeg  22.7067 -5.37678 -2.6855
RightFoot  -8.87841 -0.164277 4.83173
RightToes  -5.28216e-011 1.2921e-014 -6.02303e-014
Spine  -6.40792 -2.56736 2.96373
Spine1  10.3264 -3.19479 1.85011
HEad  6.8551 -24.3865 7.41083
LeftShoulder1  0.924714 0.029757 -22.1436
LeftArm  -3.94257 13.1526 -46.1673
LeftForeArm  31.7775 5.95498 -12.3032
LeftHand  -0.0151081 6.15334 2.37445
RightShoulder  1.25612 0.213863 29.7066
RightArm  -29.8625 0.271924 46.5242
RightForeArm  73.8834 -4.67441 0.686396
RightHand  0.315202 -7.90776 -15.4567
LeftUpLeg  -4.2086 5.23546 19.7429
LeftLeg  29.0928 15.4476 9.44312
LeftFoot  4.94903 2.4319 -17.0947
LeftToes  -9.4837e-011 -7.11147e-011 -1.07582e-011
699
root  -58.8026 38.9056 -18.7568 -7.24588 82.1258 -8.22179
RightUpLeg  -13.0106 -10.1932 -1.52646
RightLeg  22.8206 -5.09555 -2.57204
RightFoot  -9.9142 -0.113399 3.69912
RightToes  -5.28216e-011 1.2921e-014 -6.02303e-014
Spine  -6.08506 -2.39849 3.89457
Spine1  10.3652 -2.89358 1.68664
HEad  7.35856 -23.4648 7.28238
LeftShoulder1  0.926694 -0.0159938 -21.794
LeftArm  -6.0066 11.823 -47.176
LeftForeArm  33.4605 6.31628 -11.4084
LeftHand  -0.0269025 5.37193 2.59787
RightShoulder  1.35624 0.530869 29.3763
RightArm  -29.7468 0.725516 47.2154
RightForeArm  73.5597 -4.69901 0.753863
RightHand  0.282018 -7.70504 -15.1532
LeftUpLeg  -6.91945 5.0806 19.6238
LeftLeg  34.7512 15.6144 11.6899
LeftFoot  8.40389 0.945074 -5.72274
LeftToes  -9.4837e-011 -7.11147e-011 -1.07582e-011
700
root  -58.4595 38.9681 -17.914 -4.66566 80.4276 -5.22769
RightUpLeg  -11.9193 -8.9343 -0.550598
RightLeg  22.6954 -4.87469 -2.45902
RightFoot  -10.7406 -0.0868006 2.66053
RightToes  -5.28216e-011 1.2921e-014 -6.02303e-014
Spine  -5.78984 -2.09465 5.04672
Spine1  10.4748 -2.33977 1.14884
HEad  7.8712 -22.5986 7.01536
LeftShoulder1  0.906442 0.0118907 -21.3908
LeftArm  -5.87885 10.88 -48.1581
LeftForeArm  32.2008 5.02712 -11.4656
LeftHand  -0.0256478 5.43332 2.72991
RightShoulder  1.4376 0.777974 29.2386
RightArm  -28.9608 1.60336 47.683
RightForeArm  72.9315 -4.80293 1.21691
RightHand  0.275564 -7.64028 -15.2421
LeftUpLeg  -8.81504 4.47984 18.8058
LeftLeg  38.1335 11.9199 10.2228
LeftFoot  5.90815 0.908773 -6.22536
LeftToes  -9.4837e-011 -7.11147e-011 -1.07582e-011
701
root  -58.0904 39.042 -17.1228 -1.70749 78.4347 -2.0036
RightUpLeg  -10.6873 -7.8924 0.051432
RightLeg  22.0189 -4.24303 -2.01755
RightFoot  -11.402 -0.0764397 1.56608
RightToes  -5.28216e-011 1.2921e-014 -6.02303e-014
Spine  -5.66825 -1.76317 5.96164
Spine1  10.5269 -1.77588 0.432409
HEad  8.28342 -20.9588 6.41691
LeftShoulder1  0.873112 0.124377 -21.3107
LeftArm  -5.93999 9.96117 -49.0617
LeftForeArm  31.4795 3.80738 -11.4259
LeftHand  -0.0391056 4.71193 2.76007
RightShoulder  1.55842 1.18871 28.7124
RightArm  -28.1742 2.7018 48.4109
RightForeArm  72.3513 -4.89979 1.65197
RightHand  0.268317 -7.59627 -15.1669
LeftUpLeg  -10.3549 3.80529 17.0806
LeftLeg  39.4446 7.38107 6.83454
LeftFoot  2.40765 0.757053 -6.39732
LeftToes  -9.4837e-011 -7.11147e-011 -1.07582e-011
702
root  -57.7225 39.1081 -16.3964 0.272934 76.0032 0.0826111
RightUpLeg  -9.63673 -7.39131 0.4994
RightLeg  21.344 -2.73567 -1.14196
RightFoot  -11.8662 -0.0790102 0.291677
RightToes  -5.28216e-011 1.2921e-014 -6.02303e-014
Spine  -5.45326 -1.35974 7.08126
Spine1  10.3084 -1.14518 -0.420804
HEad  8.75587 -19.1438 5.53435
LeftShoulder1  0.825586 0.318617 -21.5162
LeftArm  -5.83032 9.04825 -49.8664
LeftForeArm  30.6613 2.7486 -11.4426
LeftHand  -0.0411812 4.66209 2.97543
RightShoulder  1.64721 1.55238 27.9331
RightArm  -27.8151 4.14312 49.5844
RightForeArm  71.8849 -4.93833 1.7701
RightHand  0.241 -7.3653 -15.2955
LeftUpLeg  -11.702 2.25125 14.7753
LeftLeg  39.3662 5.78118 5.43398
LeftFoot  0.279354 0.804536 -7.91579
LeftToes  -9.4837e-011 -7.11147e-011 -1.07582e-011
703
root  -57.3529 39.1725 -15.7079 2.03058 73.3202 1.86841
RightUpLeg  -8.68712 -7.24773 0.69784
RightLeg  20.7516 -0.613769 -0.0843067
RightFoot  -12.2593 -0.0919874 -1.12944
RightToes  -5.28216e-011 1.2921e-014 -6.02303e-014
Spine  -5.17639 -0.908246 7.88353
Spine1  10.0014 -0.536228 -1.16914
HEad  9.00018 -17.2376 4.30315
LeftShoulder1  0.798501 0.447812 -21.8367
LeftArm  -5.52013 8.09238 -50.6112
LeftForeArm  30.1459 2.11196 -11.5324
LeftHand  -0.0516076 4.17445 3.0161
RightShoulder  1.74468 1.95821 27.1563
RightArm  -27.4782 5.75822 50.7665
RightForeArm  71.1018 -4.98271 1.84941
RightHand  0.227011 -7.25295 -15.3289
LeftUpLeg  -13.0271 0.374762 12.0675
LeftLeg  38.2511 6.62326 5.93538
LeftFoot  -1.74002 0.713301 -8.35991
LeftToes  -9.4837e-011 -7.11147e-011 -1.07582e-011
704
root  -56.9935 39.241 -15.035 3.32271 70.4568 3.11021
RightUpLeg  -7.76037 -6.07536 1.02449
RightLeg  20.0398 0.654989 0.422325
RightFoot  -12.4567 -0.105952 -2.23163
RightToes  -5.28216e-011 1.2921e-014 -6.02303e-014
Spine  -4.78725 -0.483713 8.41175
Spine1  9.57155 -0.0186523 -1.79647
HEad  8.96468 -14.6256 3.04326
LeftShoulder1  0.724619 0.730741 -22.0493
LeftArm  -5.54724 7.40146 -51.3987
LeftForeArm  29.9926 1.81191 -11.5124
LeftHand  -0.0513552 4.27286 3.22351
RightShoulder  1.86519 2.43373 26.4981
RightArm  -27.102 7.5331 51.9878
RightForeArm  70.0867 -5.03534 1.92566
RightHand  0.195576 -7.04734 -15.03
LeftUpLeg  -14.2733 -2.25234 9.36494
LeftLeg  36.0538 9.18967 7.47032
LeftFoot  -3.64825 0.581582 -8.31541
LeftToes  -9.4837e-011 -7.11147e-011 -1.07582e-011
705
root  -56.6368 39.293 -14.3787 4.57497 67.5527 4.28036
RightUpLeg  -6.87427 -5.74511 1.08011
RightLeg  19.4049 2.76702 1.20609
RightFoot  -12.7098 -0.126936 -3.43589
RightToes  -5.28216e-011 1.2921e-014 -6.02303e-014
Spine  -4.3357 -0.0468161 8.70263
Spine1  9.05943 0.522638 -2.53466
HEad  8.95822 -11.9603 1.97619
LeftShoulder1  0.662764 0.95202 -22.0677
LeftArm  -5.68475 7.10847 -52.0378
LeftForeArm  30.2152 1.76963 -11.4626
LeftHand  -0.147116 2.05268 4.83455
RightShoulder  1.96744 2.81995 26.1127
RightArm  -26.6272 9.28321 53.157
RightForeArm  69.1516 -5.09085 2.04016
RightHand  0.190577 -6.97555 -15.304
LeftUpLeg  -15.5413 -5.68286 6.77155
LeftLeg  32.9742 12.2313 8.75854
LeftFoot  -4.02089 0.531759 -7.92808
LeftToes  -9.4837e-011 -7.11147e-011 -1.07582e-011
706
root  -56.2695 39.3154 -13.728 5.23633 64.4508 4.75424
RightUpLeg  -6.07548 -4.99558 1.2688
RightLeg  18.9121 4.87252 1.88195
RightFoot  -13.0581 -0.161203 -4.87014
RightToes  -5.28216e-011 1.2921e-014 -6.02303e-014
Spine  -3.95221 0.458792 9.0112
Spine1  8.66889 1.09346 -3.0739
HEad  8.80734 -8.64745 0.964249
LeftShoulder1  0.575574 1.27101 -22.2054
LeftArm  -5.80977 7.21097 -52.2261
LeftForeArm  30.3808 1.90428 -11.4138
LeftHand  -0.165336 1.5244 4.7982
RightShoulder  2.09495 3.26397 25.8837
RightArm  -25.2384 11.1822 54.2116
RightForeArm  68.1282 -5.23935 2.69062
RightHand  0.176011 -6.85419 -15.3877
LeftUpLeg  -16.9599 -9.17863 4.82992
LeftLeg  29.1336 13.7412 8.48237
LeftFoot  -3.98631 0.509623 -7.55074
LeftToes  -9.4837e-011 -7.11147e-011 -1.07582e-011
707
root  -55.8924 39.3634 -13.0569 5.73624 61.2518 5.12468
RightUpLeg  -4.83272 -4.04259 1.43814
RightLeg  17.7946 6.7726 2.30605
RightFoot  -13.2095 -0.179698 -5.54657
RightToes  -5.28216e-011 1.2921e-014 -6.02303e-014
Spine  -3.5591 1.00788 9.23963
Spine1  8.39782 1.78029 -3.81339
HEad  8.62353 -4.83203 0.200518
LeftShoulder1  0.529348 1.42799 -22.1031
LeftArm  -6.13513 7.94132 -52.2337
LeftForeArm  30.6907 2.08418 -11.3315
LeftHand  -0.208364 0.892974 5.32171
RightShoulder  2.19474 3.58664 25.8444
RightArm  -23.9539 12.9801 55.3648
RightForeArm  67.649 -5.34993 3.2429
RightHand  0.158743 -6.72661 -15.3391
LeftUpLeg  -18.3596 -11.6323 2.95821
LeftLeg  25.289 13.5183 7.18959
LeftFoot  -3.17854 0.546813 -7.39032
LeftToes  -9.4837e-011 -7.11147e-011 -1.07582e-011
708
root  -55.5251 39.4258 -12.3785 6.2094 57.8252 5.4929
RightUpLeg  -3.48645 -3.52323 1.37876
RightLeg  16.5985 9.40133 2.87352
RightFoot  -13.2142 -0.198459 -6.67764
RightToes  -5.28216e-011 1.2921e-014 -6.02303e-014
Spine  -3.21981 1.6259 9.3293
Spine1  8.45837 2.63353 -4.83092
HEad  8.00128 -0.107014 -0.388273
LeftShoulder1  0.464058 1.655 -22.0216
LeftArm  -6.44737 8.9981 -51.9409
LeftForeArm  30.4529 2.44884 -11.2731
LeftHand  -0.0590389 3.82419 3.02416
RightShoulder  2.34281 4.06542 25.7921
RightArm  -21.908 14.7677 56.2901
RightForeArm  66.249 -5.57066 4.2548
RightHand  0.12889 -6.52319 -15.0305
LeftUpLeg  -19.5106 -14.0845 1.27256
LeftLeg  20.8883 13.7763 6.05126
LeftFoot  -2.13525 0.620174 -7.53765
LeftToes  -9.4837e-011 -7.11147e-011 -1.07582e-011
709
root  -55.1061 39.4335 -11.6743 6.21559 55.0215 5.4157
RightUpLeg  -2.03844 -2.43027 1.73186
RightLeg  15.6654 10.8503 2.87031
RightFoot  -13.4813 -0.228646 -7.36069
RightToes  -5.28216e-011 1.2921e-014 -6.02303e-014
Spine  -3.29112 2.08135 9.42743
Spine1  8.9871 3.23177 -5.38902
HEad  7.19382 6.0277 -1.02861
LeftShoulder1  0.3911 1.92318 -22.2123
LeftArm  -6.11394 10.0925 -51.0119
LeftForeArm  30.3015 2.81906 -11.415
LeftHand  -0.0543748 3.9282 2.81268
RightShoulder  2.41557 4.30152 25.7653
RightArm  -20.3468 16.4216 57.3938
RightForeArm  65.853 -5.69444 4.91527
RightHand  0.0795593 -6.14891 -14.8046
LeftUpLeg  -20.4948 -15.1817 -0.150974
LeftLeg  16.4731 13.541 5.02481
LeftFoot  -0.844615 0.671984 -7.25519
LeftToes  -9.4837e-011 -7.11147e-011 -1.07582e-011
710
root  -54.6705 39.3659 -10.9518 6.35855 52.6033 5.5542
RightUpLeg  -0.872621 -1.07871 1.99661
RightLeg  15.6125 11.6018 2.86602
RightFoot  -14.2203 -0.304454 -8.28186
RightToes  -5.28216e-011 1.2921e-014 -6.02303e-014
Spine  -3.36754 2.47213 9.18115
Spine1  9.47499 3.70767 -5.6179
HEad  6.41483 12.5926 -1.48202
LeftShoulder1  0.339597 2.11434 -22.4463
LeftArm  -6.09276 11.4113 -50.0834
LeftForeArm  30.7853 3.55449 -11.4759
LeftHand  -0.048484 4.16805 2.67791
RightShoulder  2.52663 4.69309 25.5983
RightArm  -18.7697 17.5683 58.2296
RightForeArm  65.1847 -5.83846 5.64258
RightHand  0.0781302 -6.16301 -14.3976
LeftUpLeg  -20.8348 -11.6092 -3.11821
LeftLeg  11.7496 9.85748 4.64289
LeftFoot  0.526215 0.752521 -7.26585
LeftToes  -9.4837e-011 -7.11147e-011 -1.07582e-011
